<?xml version="1.0" encoding="UTF-8"?>
<svg version="1.1" xmlns="http://www.w3.org/2000/svg" width="48" height="48">
<path d="M0 0 C0 2.97 0 5.94 0 9 C-2.97 9.99 -5.94 10.98 -9 12 C-9.04898437 13.25296875 -9.09796875 14.5059375 -9.1484375 15.796875 C-9.22348583 17.44793821 -9.29903277 19.09897881 -9.375 20.75 C-9.42140625 21.9875 -9.42140625 21.9875 -9.46875 23.25 C-9.52675781 24.44882812 -9.52675781 24.44882812 -9.5859375 25.671875 C-9.6173584 26.4050293 -9.6487793 27.13818359 -9.68115234 27.89355469 C-10.04357812 30.2878959 -10.73647048 31.93995853 -12 34 C-14.79870027 35.39935013 -16.90498792 35.25265405 -20 35 C-21.875 33.8125 -21.875 33.8125 -23 32 C-23.5 29.5 -23.5 29.5 -23 27 C-20.39009711 25.02493835 -18.10298971 24.0343299 -15 23 C-14.67 16.07 -14.34 9.14 -14 2 C-8.52413817 0.43546805 -5.42372238 -0.22137642 0 0 Z " fill="#000000" transform="translate(36,6)"/>
</svg>
